# xmcd
#
# Track frame offsets:
#	150
#	16603
#	33121
#	50338
#	66410
#	85012
#	104662
#	122759
#	136310
#	154984
#	171153
#	187862
#	205856
#	222380
#	239768
#	257290
#	285165
#
# Disc length: 3817 seconds
#
# Revision: 1
# Processed by: cddbd v1.5.2PL0 Copyright (c) Steve Scherf et al.
# Submitted via: audiograbber 1.83.01
#
DISCID=e60ee711
DTITLE=Reba - 5047-03
DYEAR=1900
DGENRE=
TTITLE0=I'm a survivor
TTITLE1=I'd rather ride around with you
TTITLE2=How was I to know
TTITLE3=And still
TTITLE4=Ring on her finger time on her hands
TTITLE5=What if it's you
TTITLE6=Forever time
TTITLE7=Wrong night
TTITLE8=One honest heart
TTITLE9=Till I said it to you
TTITLE10=What do you say
TTITLE11=Somebody
TTITLE12=Sweet music man
TTITLE13=He gets that from me
TTITLE14=We're so good together
TTITLE15=I'm gonna take that mtn.
TTITLE16=na
EXTD=
EXTT0=
EXTT1=
EXTT2=
EXTT3=
EXTT4=
EXTT5=
EXTT6=
EXTT7=
EXTT8=
EXTT9=
EXTT10=
EXTT11=
EXTT12=
EXTT13=
EXTT14=
EXTT15=
EXTT16=
PLAYORDER=
